<?xml version="1.0" encoding="UTF-8"?><svg id="a" xmlns="http://www.w3.org/2000/svg" viewBox="0 0 513.8 514.71"><defs><style>.b{fill:#fefdfd;}.c{fill:#fefcfc;}.d{fill:#323edb;}</style></defs><circle class="d" cx="257.71" cy="256.63" r="256"/><g><path class="b" d="M286.73,146.09l3.27-4.5c2.5,.32,4.35-1.43,7.05-.2,2.42,1.1,3.08,3.01,4.68,4.84v50.63c28.5-28.5,57.15-57.15,85.12-85.12,5.49-.17,9.94-.94,11.85,5.12v5.22c-28.64,28.63-57.27,57.26-85.88,85.87,.05,.18,.06,.32,.13,.41,.1,.12,.25,.27,.38,.27,15.99,.01,31.97,.01,47.51,.01,4.34,1.9,6.45,4.78,5.79,9.41-1.14,2.29-2.52,4.58-6.7,5.59-20.95,0-43.27,0-65.59,0-3.21,0-5.45-1.38-6.65-4.41-.17-.43-.98-49.09-.98-73.12Z"/><path class="b" d="M154.23,223.62c-5.17-3.3-5.52-3.93-5.4-10.18,1.45-1.44,3.2-3.19,4.84-4.83h48.28c-28.5-28.5-57.15-57.15-85.14-85.14q-.15-8.97,4.41-11.84h6.85c28.23,28.23,56.9,56.9,85.56,85.56v-50.99l3.21-4.33c2.09-.51,3.62-1.21,5.12-1.15,1.3,.05,2.78,.7,3.79,1.55,1.18,.99,1.95,2.48,2.97,3.84,0,23.24,0,46.56,0,69.87,0,3.21-1.38,5.45-4.41,6.66-.43,.17-47.09,.98-70.09,.98Z"/><path class="b" d="M128.26,401.62h-6.27c-6.2-1.83-5.26-6.38-5.23-10.53,28.64-28.63,57.27-57.27,85.9-85.9-.07-.12-.13-.26-.23-.35-.11-.1-.27-.21-.41-.21-15.83,0-31.66,0-47.49,0-2.47-1.19-4.76-2.57-5.59-5.48-.87-4.53,1.15-7.59,5.67-9.52,21.58,0,43.57,0,65.56,0,5.52,0,8.54,3.04,8.54,8.58,.01,22.32,0,44.64,0,66.91-1.47,1.47-2.88,2.88-4.4,4.4h-6.32c-1.28-1.51-2.82-3.32-4.35-5.13v-48.17c-28.58,28.58-57.25,57.25-85.4,85.4Z"/><path class="b" d="M398.72,390.06v6.33c-1.84,6.13-6.36,5.24-10.52,5.2-28.63-28.63-57.27-57.27-85.9-85.9-.12,.07-.26,.12-.35,.22-.1,.11-.21,.27-.21,.4,0,15.83,0,31.66,0,47.82-1.29,1.7-2.73,3.61-4.1,5.42h-6.46c-1.28-1.45-2.71-3.06-4.44-5,0-21.73,0-44.06,0-66.39,0-5.53,3.03-8.55,8.58-8.55,21.99-.01,43.98,0,65.54,0,4.51,1.97,6.6,4.99,5.62,10.33-1.35,1.35-3.09,3.1-4.73,4.73h-48.4l85.38,85.38Z"/><path class="c" d="M282.85,255.65c-.05,8.17-2.55,13.94-7.4,18.75-5.25,5.21-11.51,7.57-18.95,7.27-6.71-.27-12.22-2.86-16.81-7.6-5.01-5.16-7.28-11.31-7.01-18.55,.25-6.7,2.78-12.23,7.5-16.85,5.29-5.17,11.6-7.27,19.02-7.17,4.85,.07,8.9,2,12.71,4.26,2.69,1.59,4.99,4.29,6.72,6.97,2.74,4.24,4.94,8.86,4.22,12.92Z"/></g></svg>