<svg width="128" height="129" viewBox="0 0 128 129" fill="none" xmlns="http://www.w3.org/2000/svg">
<path d="M54.2554 30.2954L64.0004 24.6104L73.7454 30.2954" stroke="white" stroke-width="3.75" stroke-linecap="round" stroke-linejoin="round"/>
<path d="M64.0005 24.6104V38.8229" stroke="white" stroke-width="3.75" stroke-miterlimit="10" stroke-linecap="round"/>
<path d="M73.7454 98.5156L64.0004 104.201L54.2554 98.5156" stroke="white" stroke-width="3.75" stroke-linecap="round" stroke-linejoin="round"/>
<path d="M64.0005 104.2V89.9873" stroke="white" stroke-width="3.75" stroke-miterlimit="10" stroke-linecap="round"/>
<path d="M29.8906 55.7902V44.5077L39.3331 38.9102" stroke="white" stroke-width="3.75" stroke-linecap="round" stroke-linejoin="round"/>
<path d="M29.8906 44.5088L41.8456 51.6163" stroke="white" stroke-width="3.75" stroke-miterlimit="10" stroke-linecap="round"/>
<path d="M98.1105 73.0195V84.302L88.668 89.8995" stroke="white" stroke-width="3.75" stroke-linecap="round" stroke-linejoin="round"/>
<path d="M98.1103 84.3018L86.1553 77.1943" stroke="white" stroke-width="3.75" stroke-miterlimit="10" stroke-linecap="round"/>
<path d="M39.3331 89.987L29.8906 84.302V73.0195" stroke="white" stroke-width="3.75" stroke-linecap="round" stroke-linejoin="round"/>
<path d="M29.8906 84.3018L41.7306 77.1943" stroke="white" stroke-width="3.75" stroke-miterlimit="10" stroke-linecap="round"/>
<path d="M88.668 38.9102L98.1105 44.5077V55.7902" stroke="white" stroke-width="3.75" stroke-linecap="round" stroke-linejoin="round"/>
<path d="M98.1103 44.5088L86.1553 51.6163" stroke="white" stroke-width="3.75" stroke-miterlimit="10" stroke-linecap="round"/>
<path d="M64.0005 75.7757V64.4057L73.7455 58.7207" stroke="white" stroke-width="3.75" stroke-miterlimit="10" stroke-linecap="round"/>
<path d="M64.0004 64.4057L54.2554 58.7207" stroke="white" stroke-width="3.75" stroke-miterlimit="10" stroke-linecap="round"/>
</svg>
