<svg width="128" height="129" viewBox="0 0 128 129" fill="none" xmlns="http://www.w3.org/2000/svg">
<path d="M64.0003 70.1841C76.7663 70.1841 87.1153 59.8352 87.1153 47.0691C87.1153 34.303 76.7663 23.9541 64.0003 23.9541C51.2342 23.9541 40.8853 34.303 40.8853 47.0691C40.8853 59.8352 51.2342 70.1841 64.0003 70.1841Z" stroke="white" stroke-width="3.75" stroke-linecap="round" stroke-linejoin="round"/>
<path d="M43.7124 59.3145L26.4399 90.407L42.1249 90.332C43.1474 90.327 44.0974 90.862 44.6199 91.7395L52.4424 104.854L68.3924 69.7645" stroke="white" stroke-width="3.75" stroke-linecap="round" stroke-linejoin="round"/>
<path d="M83.9629 58.626L101.563 90.4085L85.8779 90.3335C84.8554 90.3285 83.9054 90.8635 83.3829 91.741L75.5604 104.856L64.0029 79.4285" stroke="white" stroke-width="3.75" stroke-linecap="round" stroke-linejoin="round"/>
<path d="M64.0004 58.6277C70.3834 58.6277 75.5579 53.4532 75.5579 47.0702C75.5579 40.6872 70.3834 35.5127 64.0004 35.5127C57.6173 35.5127 52.4429 40.6872 52.4429 47.0702C52.4429 53.4532 57.6173 58.6277 64.0004 58.6277Z" stroke="white" stroke-width="3.75" stroke-linecap="round" stroke-linejoin="round"/>
</svg>
