<svg width="128" height="128" viewBox="0 0 128 128" fill="none" xmlns="http://www.w3.org/2000/svg">
<path d="M64.0002 44.6254C59.8502 44.6254 56.4502 41.2504 56.4502 37.0754C56.4502 32.9004 59.8252 29.5254 64.0002 29.5254C68.1502 29.5254 71.5502 32.9004 71.5502 37.0754C71.5502 41.2504 68.1502 44.6254 64.0002 44.6254ZM64.0002 33.8504C62.2252 33.8504 60.7752 35.3004 60.7752 37.0754C60.7752 38.8504 62.2252 40.3004 64.0002 40.3004C65.7752 40.3004 67.2252 38.8504 67.2252 37.0754C67.2252 35.3004 65.7752 33.8504 64.0002 33.8504Z" fill="white"/>
<path d="M73.6501 98.4744C71.2751 98.4744 69.2001 96.8744 68.4251 94.3244L64 80.6494L59.6 94.2994C58.7 97.1744 56.175 98.8744 53.45 98.3994C51.975 98.1494 50.675 97.2744 49.85 95.9994C49.075 94.7994 48.8 93.3744 49.125 92.0494L54.15 70.0244L54.925 66.0994C55.075 65.1244 55.525 62.2744 54.975 60.8494C54.8 60.3994 54.45 59.8994 53.15 59.3994L40.75 55.3744C40.75 55.3744 40.75 55.3744 40.725 55.3744C37.025 54.1494 36.125 51.8994 36.025 50.2244C35.925 48.4744 36.625 46.8494 37.925 45.7744C39.225 44.7244 40.975 44.3494 42.625 44.7744C42.675 44.7994 42.725 44.7994 42.8 44.8244C42.925 44.8744 54.425 48.8994 64.025 48.8994C73.625 48.8994 85 44.8994 85.125 44.8494C85.175 44.8244 85.2251 44.8244 85.2751 44.7994C86.9501 44.3244 88.6001 44.6244 89.9001 45.5994C91.2501 46.6244 92.0501 48.2994 92.0501 50.0744C92.0501 53.6244 88.9001 54.7744 87.4001 55.3244L75.5501 59.6244C74.0001 60.1994 73.35 60.8244 73.2 61.0744V61.0994C73.05 61.3744 72.6001 62.5494 73.1501 66.0744L73.9251 69.9994L78.95 92.0244V92.0494C79.25 93.4494 78.9751 94.8744 78.1751 96.0494C77.3501 97.2494 76.05 98.0994 74.6 98.3494C74.275 98.4494 73.9501 98.4744 73.6501 98.4744ZM64 70.4744C65 70.4744 65.85 71.1494 66.1 72.1244L66.875 75.2744C67.05 75.9744 67.25 76.6994 67.475 77.3994L72.5251 92.9994V93.0244C72.5751 93.1494 72.925 94.2994 73.825 94.1494C74.125 94.0994 74.4 93.9244 74.575 93.6744C74.675 93.5244 74.775 93.2994 74.725 92.9994L69.7 70.9494C69.7 70.9244 69.7001 70.8994 69.6751 70.8994L68.875 66.8994C68.875 66.8744 68.875 66.8494 68.85 66.8244C68.275 63.1994 68.425 60.7244 69.375 59.0244C70.15 57.6244 71.7 56.4744 74 55.5994H74.0251L85.875 51.2994C87.675 50.6494 87.6751 50.3994 87.6751 50.0994C87.6751 49.6744 87.5 49.2744 87.225 49.0494C87.1 48.9494 86.8751 48.8494 86.4251 48.9494C85.2251 49.3744 73.975 53.2244 63.975 53.2244C54.025 53.2244 42.7 49.3994 41.425 48.9494C41.125 48.8744 40.825 48.9494 40.6 49.1244C40.425 49.2494 40.25 49.5244 40.275 49.9744C40.275 50.1494 40.325 50.6994 42.025 51.2744L54.475 55.2994C54.5 55.2994 54.55 55.3244 54.575 55.3244C56.825 56.1744 58.25 57.4744 58.95 59.2744C59.825 61.5244 59.5 64.4744 59.125 66.7994C59.125 66.8244 59.125 66.8494 59.1 66.8744L58.3 70.8744C58.3 70.8994 58.3 70.9244 58.3 70.9244L53.3 92.9994V93.0244C53.25 93.1994 53.325 93.3994 53.45 93.6244C53.625 93.8994 53.9 94.0994 54.2 94.1494C55.025 94.2994 55.4 93.3244 55.5 92.9994V92.9744L60.475 77.6244C60.75 76.7744 61 75.8994 61.2 75.0244L61.925 72.0994C62.15 71.1494 63 70.4744 64 70.4744Z" fill="white"/>
</svg>
