<svg width="128" height="129" viewBox="0 0 128 129" fill="none" xmlns="http://www.w3.org/2000/svg">
<path d="M31.6099 32.0146V94.4821C31.6099 95.7596 32.6449 96.7946 33.9224 96.7946H96.3899" stroke="white" stroke-width="3.75" stroke-linecap="round" stroke-linejoin="round"/>
<path d="M49.5402 59.7773H43.7577C42.1602 59.7773 40.8652 61.0724 40.8652 62.6698V84.6473C40.8652 86.2448 42.1602 87.5398 43.7577 87.5398H49.5402C51.1377 87.5398 52.4327 86.2448 52.4327 84.6473V62.6698C52.4327 61.0724 51.1377 59.7773 49.5402 59.7773Z" stroke="white" stroke-width="3.75" stroke-linecap="round" stroke-linejoin="round"/>
<path d="M70.362 52.8369H64.5795C62.982 52.8369 61.687 54.1319 61.687 55.7294V84.6494C61.687 86.2469 62.982 87.5419 64.5795 87.5419H70.362C71.9595 87.5419 73.2545 86.2469 73.2545 84.6494V55.7294C73.2545 54.1319 71.9595 52.8369 70.362 52.8369Z" stroke="white" stroke-width="3.75" stroke-linecap="round" stroke-linejoin="round"/>
<path d="M91.1325 43.583H85.35C83.7525 43.583 82.4575 44.878 82.4575 46.4755V84.648C82.4575 86.2455 83.7525 87.5405 85.35 87.5405H91.1325C92.73 87.5405 94.025 86.2455 94.025 84.648V46.4755C94.025 44.878 92.73 43.583 91.1325 43.583Z" stroke="white" stroke-width="3.75" stroke-linecap="round" stroke-linejoin="round"/>
</svg>
