<?xml version="1.0" encoding="UTF-8"?><svg id="a" xmlns="http://www.w3.org/2000/svg" viewBox="0 0 513.8 514.71"><defs><style>.b{fill:#fefbfc;}.c{fill:#323edb;}</style></defs><circle class="c" cx="256.91" cy="258.18" r="256"/><path class="b" d="M186.87,137.96c0-.96,.07-1.17-.01-1.28-.29-.39-.64-.75-.99-1.14,0-3.96,.52-8.05-.17-11.92-.52-2.89-1.45-5.93-.63-8.55,.71-2.26,.49-4.43,.9-6.6,5.19-1.19,10.44-2.27,15.64-3.16,5.14-.88,10.09-2.43,15.19-3.38,4.5-.83,8.73-3.02,13.14-4.4,7.53-2.36,14.64-5.7,21.83-8.87,4.75-2.1,5.5-2.22,10.17,.02,11.01,5.29,22.48,9.4,34.13,12.93,4.89,1.49,9.98,2.57,15.05,3.6,4.1,.83,8.39,.96,12.32,2.78,1.09,.51,2.62,.08,4.33,.08-.4,4.22,2.17,8.29,.97,12.39-1.48,5.06-.39,10.1-.97,15.11l-1.03,1.37c.25,.5,.33,.95,.54,1.02,4.24,1.45,8.57,2.6,12.82,4.04,5.56,1.88,11.06,3.82,16.45,6.18,5.72,2.5,11.25,5.35,16.26,8.96,8.25,5.94,16.04,12.42,20.08,22.26,.9,2.19,1.47,4.39,2.06,6.66,1.54,5.86,.84,11.75,.85,17.61,.08,54.33,.05,108.66,.04,162.99,0,5.31-3.11,15.62-6.1,19.97-.56,.81-1.39,1.43-2.1,2.14-2.47,2.47-5.06,4.85-7.4,7.45-3.38,3.75-7.83,5.99-11.89,8.77-2.29,1.57-4.78,2.89-7.31,4.05-6.59,3-13.28,5.78-20.18,8.01-3.39,1.1-6.87,1.9-10.24,3.05-3.38,1.15-6.97,1.45-10.32,2.84-1.64,.68-3.74,.74-5.55,.96-5.07,.61-9.98,2.39-15.15,2.17-3.05,1.99-6.59,.66-9.88,1.44-3.29,.78-6.99-.13-10.27,.67-6.7,1.65-13.42,.61-20.11,.83-6.83,.23-13.72,.57-20.48-.15-4.05-.43-8.12-.3-12.09-.9-5.55-.85-11.1-1.43-16.69-1.9-2.37-2.09-5.52-.45-8.26-1.83-2.28-1.15-5.41-.47-7.98-1.24-5.07-1.53-10.33-2.38-15.32-4.05-2.5-.84-5.23-.95-7.55-2.26-2.18-1.24-4.71-1.6-6.89-2.68-5.81-2.88-12.13-4.63-17.52-8.5-2.22-1.59-4.75-2.93-7.16-4.36-4.16-2.47-7-6.4-10.56-9.53-4.69-4.12-7.49-9.28-9.21-15.2-.88-3.04-1.78-6.08-1.78-9.25-.03-58.5-.1-116.99,.07-175.49,.03-8.76,3.52-16.57,9.74-22.92,4.43-4.53,8.71-9.27,14.37-12.38,4.74-2.61,8.92-6.3,14.42-7.43,7.54-4.84,16.4-6.26,24.56-9.51,1.85-.74,3.88-1.01,5.82-1.49Zm-53,59.1c3.03,6.42,6.89,11.3,12.36,15.04,2.73,1.86,5.71,3.38,8.26,5.34,4.7,3.61,10.54,4.55,15.38,7.64,8.61,2.05,16.54,6.53,25.56,7.06,5.34,2.52,11.32,2.24,16.88,3.88,1.67,.5,3.83-.26,5.29,.49,1.69,.86,3.23,.55,4.78,.5,1.84-.06,3.42,.86,5.09,.99,4.2,.32,8.39,.51,12.59,.89,7.6,.69,15.32-.11,22.97,.28,7.76,.39,15.35-1.56,23.08-1.09,.33,.02,.81,.15,.98-.02,1.5-1.46,3.4-1.14,5.1-.91,2.06,.28,3.69-.98,5.59-1.07,2.07-.09,4.05,.01,6.14-.86,1.79-.74,4.05-.71,6.05-.97,6.58-.84,12.88-2.85,19.26-4.37,3.48-.83,6.97-2.5,10.44-3.63,3.56-1.16,6.81-2.97,10.31-4.09,3.63-1.16,6.67-3.25,9.91-5.06,5.5-3.06,10.67-6.6,14.73-11.39,3.17-3.74,6.01-7.83,5.3-13.29-.26-1.95-.04-3.96-.04-5.84-.34-.34-.66-.54-.8-.82-2.58-5.19-5.98-9.53-10.81-13.02-3.59-2.6-7.27-4.86-11.09-7.06-2.3-1.32-4.41-2.94-7.03-3.59-2.58-.64-4.65-2.31-7.21-3.14-6.17-2.01-12.3-4.13-18.77-5.93-.43,1.3-.87,2.61-1.29,3.93-3.01,9.46-7.13,18.45-12.33,26.87-4.91,7.96-11.28,14.85-17.64,21.67-1.63,1.75-3.72,3.07-5.55,4.63-2.59,2.21-4.95,4.76-7.76,6.65-6.57,4.42-13.33,8.54-20.6,11.76-1.47,.65-2.7,.75-4.08,.08-3.88-1.88-8-3.41-11.61-5.72-8.36-5.36-16.04-11.66-23.38-18.34-2.01-1.83-3.54-4.19-5.35-6.25-1.81-2.07-3.7-4.03-5.4-6.22-3.59-4.62-6.55-9.58-9.44-14.62-3.39-5.92-6.17-12.09-7.91-18.72-.53-2-1.64-3.86-2.53-5.88-.98,.51-1.62,1.01-2.35,1.2-.92,.24-1.98,.04-2.86,.35-12.05,4.26-21.19,7.05-30.7,12.73-4.08,2.44-8.11,5.06-11.48,8.46-1.69,1.71-3.1,3.7-4.62,5.57-2.15,2.64-3.7,5.48-3.45,9.08,.16,2.32,.03,4.66,.03,6.82Zm247,24.13c-3.04,2.12-5.85,4.07-8.65,6.04-5.36,3.76-10.96,6.96-17.15,9.31-4.18,1.59-8.27,3.34-12.58,4.65-4.29,1.3-8.56,2.7-12.82,4.06-8.23,2.63-16.82,3.45-25.09,5.74-2.4,.66-5.03,.25-7.59,.97-2.4,.67-5.16-.28-7.55,1.13-5.59-.71-11.03,1.04-16.59,1.01-6.67-.03-13.34,.14-20-.05-6.7-.19-13.44,.83-20.1-.9-3.09-.8-6.32,.26-9.64-.85-3.07-1.02-6.65-.26-10.04-1.09-4.61-1.13-9.49-1.15-14.11-2.26-1.89-.45-3.94-.26-5.56-1-2.77-1.26-5.73-1.42-8.54-2.33-2.95-.96-6.04-1.5-8.95-2.56-9.56-3.48-19.27-6.5-28.12-11.84-5.08-3.07-9.94-6.35-14.93-10.28,0,1.37-.02,2.33,0,3.3,.26,10.84-.86,21.74,1.35,32.82,.76,1.3,1.62,2.96,2.65,4.51,2.62,3.93,5.88,7.24,9.83,9.84,2.74,1.8,5.38,3.85,8.33,5.24,4.88,2.29,9.57,4.93,14.64,6.9,6.81,2.66,13.73,4.76,20.78,6.57,3.35,.86,6.72,1.51,10.08,2.27,5.09,1.15,10.18,2.12,15.36,2.68,.99,.11,2.25-.37,2.95,.09,1.97,1.27,4.07,.75,6.13,.95,2.04,.21,4.05,.78,6.09,.94,4.53,.36,9.03-.04,13.62,.83,4.66,.89,9.64,.36,14.46,.15,4.7-.2,9.4,.68,14.13-.82,2.42-.77,5.3,0,7.95-.17,2.71-.17,5.39-.68,8.09-.95,3.86-.38,7.86-.17,11.53-1.2,2.26-.63,4.56-.2,6.57-.98,3.53-1.36,7.27-2.11,10.85-2.63,5.03-.73,9.7-2.49,14.52-3.75,7.46-1.94,14.56-5.05,21.47-8.48,6.05-3,11.76-6.64,16.95-10.93,3.82-3.16,6.47-7.41,8.48-11.91,.28-2.37,1.09-4.71,1.12-7.05,.15-9.29,.06-18.59,.06-27.97Zm0,58.63c-2.75,2.05-5.06,3.7-7.39,5.35-3.34,2.36-6.69,4.59-10.43,6.26-3.66,1.63-7.04,3.76-10.91,5.05-3.19,1.06-6.24,2.59-9.49,3.63-3.39,1.09-6.7,2.34-10.21,3.18-3.42,.81-6.89,1.79-10.33,2.7-3.64,.97-7.4,1.57-11.11,2.27-2.22,.42-4.72,.09-6.52,1.01-1.68,.85-3.14,.52-4.68,.81-1.7,.32-3.38,.81-5.09,.96-2.71,.25-5.38,.36-8.11,.84-4.42,.78-9.02,.49-13.57,1.02-5.92,.69-11.98,.31-17.97,.13-6.03-.18-12.05,.52-18.11-.81-4.21-.92-8.74,.33-13.07-1.09-2.41-.79-4.98,.48-7.66-.87-2.1-1.06-4.95-.44-7.53-.98-3.52-.74-7.1-1.61-10.64-2.05-5.97-.75-11.57-2.67-17.33-4.09-5.58-1.38-16.82-5.23-22.23-7.91-5.26-2.61-10.75-4.79-15.61-8.16-3.26-2.26-6.49-4.56-9.99-7.03v4.44c0,5,.31,10.02-.09,14.99-.41,5.13,1.53,10.01,1.1,14.85,.39,.72,.68,1.28,.99,1.82,1.07,1.89,1.9,3.98,3.27,5.63,5.1,6.14,11.53,10.68,18.47,14.49,2.83,1.55,5.44,3.69,8.87,3.92,7.43,4.34,15.94,5.75,23.88,8.71,1.5,.56,3.34,1.05,5.01,1.12,4.32,.18,8.54,1.31,12.61,2.3,5.58,1.36,11.29,1.3,16.84,2.66,3.06,.75,6.34,.23,9.59,.94,3.5,.77,7.3,.31,10.96,.13,3.77-.18,7.39,.74,11.09,.96,2.85,.17,5.68,.08,8.63-.73,3.1-.85,6.61-.19,9.94-.19,2.67,0,5.52,.59,7.94-.18,2.1-.67,4.09-.61,6.14-.84,2.04-.23,4.05-.71,6.09-.96,2.21-.27,4.58,.6,6.58-1.02,5.94,.07,11.51-1.95,17.24-3.04,4.59-.88,9.19-1.87,13.62-3.31,6.44-2.1,12.88-4.31,19.05-7.08,9.52-4.26,18.11-10.02,25.04-17.96,.5-.57,.65-1.45,1.16-2,3.66-3.96,3.41-9.21,3.79-13.87,.68-8.42,.19-16.93,.19-25.99Zm-246.83,92.73c1.82,3.33,3.6,6.64,6.22,9.48,5.28,5.72,11.92,9.47,18.66,12.97,8.24,4.28,15.14,6.67,28.28,10.22,2.84,.77,5.72,1.45,8.57,2.18,2.89,.74,6.05,.94,8.74,1.89,2.93,1.05,6.18-.26,8.75,1.78,2.79-.43,5.39,.7,8.09,.96,2.71,.26,5.52-.34,8.08,1.04,6.42-.74,12.69,1.29,19.08,.99,9.19-.43,18.41,.83,27.6-.9,4.1-.77,8.41,.35,12.6-1.01,2.22-.72,4.67,.02,7.12-.92,2.26-.86,5.05-.73,7.54-.96,4.63-.42,9.15-1.51,13.61-2.42,6.03-1.24,12.12-2.72,17.96-4.83,6.08-2.2,12.29-4.09,18.11-6.96,4.77-2.35,9.24-5.18,13.61-8.21,3.91-2.71,7-6.06,9.9-9.81,3.1-4.02,3.97-8.61,4.21-13.25,.39-7.48,.11-14.99,.1-22.49,0-1.07-.13-2.14-.19-3.2-1.1,.57-2.06,.84-2.74,1.44-7.8,7-17.42,10.87-26.58,15.52-2.46-.59-4.08,1.45-6.13,2.13-6.17,2.04-12.37,4.01-18.66,5.59-4.69,1.18-9.4,2.47-14.17,3.12-1.92,.26-3.61,1.25-5.56,1.18-2.08-.07-4.08,.49-6.11,.82-5.51,.9-11.12,1.13-16.66,2.07-3.08,.52-6.32-.04-9.48,.13-3.04,.16-6.07,.98-9.09,.89-7.86-.23-15.74,.79-23.61-.82-4.74-.97-9.73,.54-14.59-1.02-2.72-.87-5.76,.45-8.7-.75-2.63-1.08-5.62-.5-8.49-1.13-3.66-.8-7.43-1.43-11.15-2.07-5.73-.98-11.22-2.73-16.84-4.05-10.69-2.52-21.42-7.09-28.31-10.14-2.82-1.25-5.41-3.05-8.09-4.61-3.7-2.16-7.43-4.26-10.45-7.4-.48-.5-1.24-.73-2.39-1.38,0,1.54-.03,2.5,0,3.45,.33,10.19-.93,20.43,1.17,30.48Zm90.67-209.85c.4,.57,.88,1.58,1.64,2.31,5.95,5.69,11.95,11.32,17.94,16.98,.81,.76,1.59,1.56,2.6,2.56,1.4-1.4,3.01-2.36,3.59-3.75,.88-2.11,2.69-3.22,3.99-4.84,1.41-1.75,2.76-3.55,4.25-5.23,3.37-3.79,7.08-7.31,10.14-11.33,1.99-2.61,4.52-4.72,6.38-7.34,3.3-4.65,7.68-8.33,11.03-12.9,1.16-1.58,2.41-3.1,3.69-4.74-3.86-3.32-7.42-6.38-11.05-9.5-1.92,.91-2.48,2.92-3.75,4.23-5.01,5.13-9.46,10.73-14.09,16.17-3.29,3.86-6.81,7.52-10.22,11.27-.33,.36-.82,.68-.95,1.1-.64,2.22-2.5,3.21-4.12,4.78-3.71-3.71-7.19-7.19-10.42-10.42-3.51,3.51-6.77,6.77-10.65,10.65Z"/><path class="c" d="M133.87,197.06c0-2.15,.13-4.5-.03-6.82-.25-3.6,1.3-6.44,3.45-9.08,1.52-1.87,2.93-3.86,4.62-5.57,3.37-3.41,7.4-6.03,11.48-8.46,9.51-5.69,18.65-8.47,30.7-12.73,.88-.31,1.94-.12,2.86-.35,.73-.19,1.37-.68,2.35-1.2,.89,2.02,2,3.87,2.53,5.88,1.74,6.63,4.51,12.8,7.91,18.72,2.89,5.04,5.85,10,9.44,14.62,1.7,2.2,3.59,4.16,5.4,6.22,1.81,2.07,3.33,4.42,5.35,6.25,7.34,6.68,15.02,12.99,23.38,18.34,3.61,2.31,7.72,3.84,11.61,5.72,1.37,.67,2.61,.57,4.08-.08,7.27-3.22,14.03-7.35,20.6-11.76,2.81-1.89,5.17-4.44,7.76-6.65,1.84-1.57,3.92-2.88,5.55-4.63,6.37-6.83,12.73-13.71,17.64-21.67,5.2-8.42,9.32-17.41,12.33-26.87,.42-1.32,.86-2.62,1.29-3.93,6.47,1.8,12.6,3.93,18.77,5.93,2.55,.83,4.63,2.5,7.21,3.14,2.62,.65,4.73,2.27,7.03,3.59,3.82,2.19,7.5,4.46,11.09,7.06,4.83,3.49,8.23,7.83,10.81,13.02,.14,.28,.46,.48,.8,.82,0,1.88-.22,3.89,.04,5.84,.72,5.46-2.13,9.55-5.3,13.29-4.06,4.79-9.23,8.33-14.73,11.39-3.25,1.81-6.28,3.89-9.91,5.06-3.5,1.12-6.75,2.93-10.31,4.09-3.48,1.13-6.96,2.8-10.44,3.63-6.38,1.52-12.68,3.53-19.26,4.37-2,.26-4.26,.23-6.05,.97-2.09,.87-4.07,.77-6.14,.86-1.9,.09-3.53,1.35-5.59,1.07-1.69-.23-3.59-.55-5.1,.91-.17,.17-.65,.04-.98,.02-7.73-.48-15.32,1.48-23.08,1.09-7.64-.38-15.37,.41-22.97-.28-4.2-.38-8.4-.56-12.59-.89-1.68-.13-3.25-1.05-5.09-.99-1.55,.05-3.09,.36-4.78-.5-1.46-.75-3.61,0-5.29-.49-5.55-1.64-11.54-1.36-16.88-3.88-9.03-.53-16.96-5.01-25.56-7.06-4.84-3.09-10.68-4.03-15.38-7.64-2.55-1.96-5.53-3.48-8.26-5.34-5.47-3.73-9.32-8.62-12.36-15.04Z"/><path class="c" d="M380.87,221.19c0,9.39,.09,18.68-.06,27.97-.04,2.34-.85,4.68-1.12,7.05-2.01,4.5-4.65,8.75-8.48,11.91-5.19,4.29-10.9,7.93-16.95,10.93-6.91,3.43-14.01,6.54-21.47,8.48-4.82,1.26-9.48,3.02-14.52,3.75-3.58,.52-7.33,1.27-10.85,2.63-2.02,.78-4.32,.34-6.57,.98-3.67,1.03-7.67,.82-11.53,1.2-2.7,.27-5.38,.78-8.09,.95-2.66,.17-5.53-.6-7.95,.17-4.73,1.5-9.43,.62-14.13,.82-4.82,.21-9.8,.74-14.46-.15-4.59-.87-9.09-.47-13.62-.83-2.04-.16-4.05-.74-6.09-.94-2.06-.21-4.16,.32-6.13-.95-.71-.46-1.96,.02-2.95-.09-5.18-.56-10.27-1.53-15.36-2.68-3.35-.76-6.73-1.41-10.08-2.27-7.05-1.81-13.97-3.91-20.78-6.57-5.06-1.98-9.76-4.61-14.64-6.9-2.95-1.39-5.59-3.44-8.33-5.24-3.95-2.6-7.21-5.92-9.83-9.84-1.03-1.55-1.89-3.21-2.65-4.51-2.21-11.09-1.09-21.98-1.35-32.82-.02-.96,0-1.93,0-3.3,4.99,3.93,9.85,7.21,14.93,10.28,8.85,5.34,18.56,8.35,28.12,11.84,2.91,1.06,6,1.61,8.95,2.56,2.8,.91,5.77,1.07,8.54,2.33,1.61,.73,3.67,.54,5.56,1,4.62,1.11,9.5,1.13,14.11,2.26,3.4,.83,6.98,.07,10.04,1.09,3.32,1.11,6.55,.04,9.64,.85,6.66,1.73,13.4,.72,20.1,.9,6.66,.19,13.33,.01,20,.05,5.55,.03,10.99-1.72,16.59-1.01,2.39-1.4,5.15-.46,7.55-1.13,2.56-.72,5.2-.31,7.59-.97,8.28-2.29,16.86-3.11,25.09-5.74,4.27-1.36,8.53-2.76,12.82-4.06,4.31-1.31,8.4-3.06,12.58-4.65,6.19-2.35,11.79-5.55,17.15-9.31,2.8-1.96,5.61-3.91,8.65-6.04Z"/><path class="c" d="M380.87,279.82c0,9.06,.49,17.57-.19,25.99-.38,4.67-.12,9.91-3.79,13.87-.51,.55-.66,1.43-1.16,2-6.94,7.95-15.52,13.7-25.04,17.96-6.17,2.76-12.61,4.98-19.05,7.08-4.43,1.44-9.03,2.43-13.62,3.31-5.73,1.09-11.31,3.11-17.24,3.04-2,1.62-4.38,.74-6.58,1.02-2.04,.25-4.05,.73-6.09,.96-2.05,.23-4.03,.18-6.14,.84-2.42,.77-5.27,.18-7.94,.18-3.33,0-6.85-.66-9.94,.19-2.95,.81-5.78,.9-8.63,.73-3.69-.22-7.32-1.14-11.09-.96-3.66,.18-7.46,.63-10.96-.13-3.25-.71-6.53-.19-9.59-.94-5.55-1.36-11.26-1.3-16.84-2.66-4.07-.99-8.28-2.12-12.61-2.3-1.67-.07-3.51-.56-5.01-1.12-7.94-2.96-16.45-4.37-23.88-8.71-3.43-.23-6.04-2.37-8.87-3.92-6.94-3.81-13.36-8.36-18.47-14.49-1.37-1.64-2.2-3.74-3.27-5.63-.31-.54-.59-1.1-.99-1.82,.43-4.84-1.51-9.72-1.1-14.85,.39-4.97,.09-9.99,.09-14.99v-4.44c3.5,2.47,6.73,4.78,9.99,7.03,4.87,3.37,10.35,5.55,15.61,8.16,5.4,2.68,16.65,6.54,22.23,7.91,5.76,1.42,11.36,3.34,17.33,4.09,3.55,.44,7.12,1.31,10.64,2.05,2.58,.54,5.44-.08,7.53,.98,2.67,1.35,5.25,.08,7.66,.87,4.32,1.43,8.86,.17,13.07,1.09,6.06,1.33,12.08,.63,18.11,.81,5.99,.18,12.06,.56,17.97-.13,4.55-.53,9.15-.25,13.57-1.02,2.73-.48,5.41-.59,8.11-.84,1.71-.16,3.39-.65,5.09-.96,1.54-.29,3.01,.04,4.68-.81,1.8-.92,4.3-.59,6.52-1.01,3.71-.7,7.47-1.31,11.11-2.27,3.43-.91,6.91-1.89,10.33-2.7,3.52-.84,6.82-2.09,10.21-3.18,3.24-1.04,6.3-2.57,9.49-3.63,3.88-1.29,7.26-3.42,10.91-5.05,3.75-1.66,7.09-3.89,10.43-6.26,2.33-1.65,4.64-3.3,7.39-5.35Z"/><path class="c" d="M134.04,372.56c-2.09-10.05-.84-20.29-1.17-30.48-.03-.95,0-1.9,0-3.45,1.15,.65,1.91,.88,2.39,1.38,3.02,3.14,6.75,5.25,10.45,7.4,2.68,1.56,5.26,3.37,8.09,4.61,6.89,3.05,17.62,7.61,28.31,10.14,5.62,1.33,11.11,3.07,16.84,4.05,3.72,.64,7.48,1.27,11.15,2.07,2.87,.63,5.87,.05,8.49,1.13,2.93,1.21,5.97-.12,8.7,.75,4.86,1.55,9.86,.05,14.59,1.02,7.87,1.61,15.75,.59,23.61,.82,3.02,.09,6.05-.73,9.09-.89,3.16-.17,6.4,.39,9.48-.13,5.54-.94,11.15-1.17,16.66-2.07,2.03-.33,4.04-.89,6.11-.82,1.96,.07,3.65-.92,5.56-1.18,4.77-.65,9.48-1.95,14.17-3.12,6.29-1.58,12.49-3.54,18.66-5.59,2.05-.68,3.67-2.72,6.13-2.13,9.16-4.65,18.78-8.52,26.58-15.52,.67-.6,1.63-.88,2.74-1.44,.07,1.05,.19,2.12,.19,3.2,.02,7.5,.29,15.01-.1,22.49-.24,4.64-1.11,9.23-4.21,13.25-2.9,3.75-5.98,7.1-9.9,9.81-4.37,3.03-8.84,5.86-13.61,8.21-5.83,2.87-12.03,4.76-18.11,6.96-5.84,2.11-11.92,3.59-17.96,4.83-4.46,.91-8.97,2-13.61,2.42-2.49,.23-5.28,.1-7.54,.96-2.45,.94-4.9,.21-7.12,.92-4.19,1.35-8.5,.23-12.6,1.01-9.19,1.73-18.41,.47-27.6,.9-6.39,.3-12.67-1.73-19.08-.99-2.57-1.38-5.37-.79-8.08-1.04-2.7-.26-5.3-1.38-8.09-.96-2.58-2.03-5.82-.73-8.75-1.78-2.68-.96-5.85-1.15-8.74-1.89-2.85-.73-5.73-1.42-8.57-2.18-13.14-3.55-20.03-5.94-28.28-10.22-6.73-3.5-13.38-7.25-18.66-12.97-2.61-2.84-4.39-6.15-6.22-9.48Z"/><path class="c" d="M224.71,162.71c3.87-3.87,7.13-7.13,10.65-10.65,3.23,3.23,6.71,6.71,10.42,10.42,1.63-1.57,3.49-2.56,4.12-4.78,.12-.42,.62-.74,.95-1.1,3.41-3.75,6.93-7.41,10.22-11.27,4.64-5.44,9.09-11.04,14.09-16.17,1.28-1.31,1.83-3.32,3.75-4.23,3.63,3.12,7.2,6.19,11.05,9.5-1.28,1.64-2.53,3.16-3.69,4.74-3.35,4.57-7.73,8.24-11.03,12.9-1.86,2.62-4.39,4.73-6.38,7.34-3.06,4.02-6.77,7.54-10.14,11.33-1.49,1.68-2.84,3.48-4.25,5.23-1.31,1.62-3.11,2.73-3.99,4.84-.58,1.39-2.2,2.35-3.59,3.75-1.01-1-1.79-1.8-2.6-2.56-5.98-5.66-11.99-11.29-17.94-16.98-.76-.72-1.24-1.73-1.64-2.31Z"/></svg>