<?xml version="1.0" encoding="UTF-8"?><svg id="a" xmlns="http://www.w3.org/2000/svg" viewBox="0 0 513.8 514.71"><defs><style>.b{fill:#a7e82c;}.c{fill:#fef6f7;}.d{fill:#fefbfb;}</style></defs><circle class="b" cx="257.5" cy="256.57" r="256"/><g><path class="c" d="M225.48,265.56c-.6,1.53-1.12,2.82-1.6,4.11-2.9,7.8-8.42,13.27-15.43,17.43-1.62,.96-10.18,3.44-12.06,3.45-2.33,.01-4.68,.18-6.99-.05-2.18-.21-4.32-.85-6.56-1.32-10.79-4.32-18.57-11.66-21.75-23.54h-57.4c-3.39-1.52-5.53-3.32-6.73-6.11-.6-1.41-.65-2.65,.09-4.08,1.91-3.7,4.53-5.95,8.99-5.93,18.32,.08,36.65,.04,55.29,.04,.34-5.96,4.09-10.41,7.58-14.69,3.59-4.41,9.01-6.73,14.28-9.16,4.14-.46,8.42-1.56,12.86-1.2,3.03,.24,5.92,.95,8.64,2.1,4.35,1.84,8.49,4.11,11.88,7.53,3.85,3.88,6.56,8.4,7.95,13.71,.15,.57,.78,1.01,1.29,1.64h183.51c3.35,1.5,5.6,3.26,6.65,6.12,.38,1.02,.67,2.25,.45,3.28-.66,3.16-5.2,6.6-8.49,6.68-.83,.02-1.67,0-2.5,0H225.48Zm-15-7.96c.59-11.23-8.62-18.02-17.57-17.82-9.14,.21-17.11,5.91-17.3,17.48-.19,11.81,8.02,17.83,17.21,18.07,9.05,.23,18.24-6.67,17.66-17.73Z"/><path class="d" d="M287.52,148.56c3.4-9.96,8.92-17.77,18.65-22.33,6.65-3.11,13.49-2.63,20.39-2.67,11.92,3.62,21.77,10.96,25.19,24.9h58.83c1.39,1.04,2.4,1.79,3.81,2.84,.55,1.14,1.35,2.81,2.15,4.47-.79,3.35-1.72,6.53-6.61,7.75h-57.04c-.73,1.09-1.94,2.16-2.21,3.44-1.27,5.96-4.86,10.45-9.33,14.09-4.86,3.95-10.16,7.37-16.85,7.56-1.7,.05-3.45,1.09-5.08,.88-8.03-1.08-15.88-2.72-21.69-9.15-1.67-1.85-3.82-3.34-5.17-5.38-1.86-2.81-3.59-5.8-4.12-9.28-.11-.72-.78-1.35-1.2-2.03H102.58c-3.96-1.2-5.33-4.09-6.17-7.79,.68-1.42,1.48-3.08,2.33-4.87,1-.68,2.17-1.47,3.58-2.43h185.2Zm14.96,2.59c0,2.24,.05,4.57-.01,6.9-.18,6.5,5.68,12.75,10.87,14.64,2.93,1.07,5.74,.68,8.6,.87,4.7,.31,8.37-2.43,11.12-5.39,3.02-3.26,4.66-7.62,4.51-12.54-.23-7.02-3.89-11.51-9.44-15.08-3.81-2.45-8.2-2.73-12.09-1.75-4.01,1.01-8.28,2.74-10.42,7.1-.89,1.81-2.06,3.47-3.14,5.27Z"/><path class="d" d="M287.44,366.56H102.21c-1.11-.84-2.11-1.59-3.63-2.74-.48-1-1.62-2.6-1.98-4.36-.25-1.24,.29-2.85,.94-4.03,1.4-2.53,3.62-3.97,6.65-3.88,.83,.03,1.67,0,2.5,0h180.76c1.93-4.33,2.85-9.26,6.36-12.84,3.63-3.7,7.05-7.83,11.94-9.8,4.47-1.8,9.28-3.67,14.08-3.18,4.71,.47,9.51,1,14.03,3.45,4.63,2.51,8.73,5.47,12.04,9.4,3.11,3.69,4.54,8.42,6.46,12.84h58.48c1.73,1.27,3.26,2.4,4.19,3.08,.66,2.06,1.09,3.4,1.55,4.87-.74,1.45-1.51,2.96-2.44,4.77-.83,.56-1.99,1.35-3.64,2.47h-58.71c-3.49,13.88-13.03,21.19-25.17,24.95-5.66-.29-11.4,.77-16.97-1.28-5.46-2-10.27-4.86-14.19-9.21-3.73-4.14-5.93-9.13-8.03-14.5Zm37.45-25.01c-2.24,0-4.57,.05-6.9-.01-6.52-.18-12.75,5.69-14.64,10.87-1.07,2.93-.68,5.74-.87,8.6-.31,4.7,2.43,8.37,5.39,11.12,3.26,3.02,7.62,4.67,12.54,4.51,7.02-.23,11.52-3.88,15.08-9.44,2.45-3.81,2.74-8.2,1.75-12.09-1.01-4.01-2.73-8.28-7.1-10.42-1.81-.88-3.47-2.06-5.27-3.14Z"/><path class="b" d="M210.48,257.6c.58,11.07-8.62,17.97-17.66,17.73-9.18-.24-17.4-6.26-17.21-18.07,.19-11.57,8.15-17.27,17.3-17.48,8.95-.2,18.16,6.59,17.57,17.82Z"/><path class="b" d="M302.48,151.14c1.08-1.79,2.25-3.46,3.14-5.27,2.14-4.36,6.41-6.09,10.42-7.1,3.89-.98,8.28-.7,12.09,1.75,5.55,3.57,9.21,8.05,9.44,15.08,.16,4.93-1.48,9.28-4.51,12.54-2.75,2.96-6.42,5.7-11.12,5.39-2.87-.19-5.67,.2-8.6-.87-5.19-1.89-11.05-8.13-10.87-14.64,.06-2.32,.01-4.65,.01-6.9Z"/><path class="b" d="M324.9,341.56c1.79,1.08,3.46,2.26,5.27,3.14,4.36,2.14,6.09,6.41,7.1,10.42,.98,3.89,.69,8.28-1.75,12.09-3.56,5.55-8.06,9.21-15.08,9.44-4.93,.16-9.28-1.48-12.54-4.51-2.96-2.75-5.7-6.42-5.39-11.12,.19-2.87-.2-5.67,.87-8.6,1.89-5.18,8.12-11.04,14.64-10.87,2.32,.06,4.65,.01,6.9,.01Z"/></g></svg>