<?xml version="1.0" encoding="iso-8859-1"?>
<!-- Uploaded to: SVG Repo, www.svgrepo.com, Generator: SVG Repo Mixer Tools -->
<svg fill="#000000" height="800px" width="800px" version="1.1" id="Layer_1" xmlns="http://www.w3.org/2000/svg" xmlns:xlink="http://www.w3.org/1999/xlink" 
	 viewBox="0 0 512 512" xml:space="preserve">
<g>
	<g>
		<path d="M478.33,42.756H119.182c-18.566,0-33.67,15.105-33.67,33.67v103.148H33.67c-18.566,0-33.67,15.105-33.67,33.67v222.33
			c0,18.566,15.105,33.67,33.67,33.67h359.148c18.566,0,33.67-15.105,33.67-33.67V332.426h51.841c18.566,0,33.67-15.105,33.67-33.67
			V76.426C512,57.86,496.895,42.756,478.33,42.756z M410.455,435.574c0,9.725-7.912,17.637-17.637,17.637H33.67
			c-9.725,0-17.637-7.912-17.637-17.637v-222.33c0-9.725,7.912-17.637,17.637-17.637h359.148c9.725,0,17.637,7.912,17.637,17.637
			V435.574z M495.967,298.756c0,9.725-7.912,17.637-17.637,17.637h-51.841V213.244c0-18.566-15.105-33.67-33.67-33.67H101.545
			v-35.273h394.422V298.756z M495.967,128.267H101.545V92.994h394.422V128.267z M495.967,76.96H101.545v-0.534
			c0-9.725,7.912-17.637,17.637-17.637H478.33c9.725,0,17.637,7.912,17.637,17.637V76.96z"/>
	</g>
</g>
<g>
	<g>
		<path d="M110.63,333.495H59.324c-4.427,0-8.017,3.589-8.017,8.017s3.589,8.017,8.017,8.017h51.307
			c4.427,0,8.017-3.589,8.017-8.017S115.058,333.495,110.63,333.495z"/>
	</g>
</g>
<g>
	<g>
		<path d="M230.347,367.699h-17.102c-4.427,0-8.017,3.589-8.017,8.017c0,4.427,3.589,8.017,8.017,8.017h17.102
			c4.427,0,8.017-3.589,8.017-8.017C238.363,371.289,234.774,367.699,230.347,367.699z"/>
	</g>
</g>
<g>
	<g>
		<path d="M281.653,367.699h-17.102c-4.427,0-8.017,3.589-8.017,8.017c0,4.427,3.589,8.017,8.017,8.017h17.102
			c4.427,0,8.017-3.589,8.017-8.017C289.67,371.289,286.081,367.699,281.653,367.699z"/>
	</g>
</g>
<g>
	<g>
		<path d="M196.142,333.495h-51.307c-4.427,0-8.017,3.589-8.017,8.017s3.589,8.017,8.017,8.017h51.307
			c4.427,0,8.017-3.589,8.017-8.017S200.569,333.495,196.142,333.495z"/>
	</g>
</g>
<g>
	<g>
		<path d="M281.653,333.495h-51.307c-4.427,0-8.017,3.589-8.017,8.017s3.589,8.017,8.017,8.017h51.307
			c4.427,0,8.017-3.589,8.017-8.017S286.081,333.495,281.653,333.495z"/>
	</g>
</g>
<g>
	<g>
		<path d="M119.182,401.904H59.324c-4.427,0-8.017,3.589-8.017,8.017c0,4.427,3.589,8.017,8.017,8.017h59.858
			c4.427,0,8.017-3.589,8.017-8.017C127.198,405.493,123.609,401.904,119.182,401.904z"/>
	</g>
</g>
<g>
	<g>
		<path d="M196.142,401.904h-42.756c-4.427,0-8.017,3.589-8.017,8.017c0,4.427,3.589,8.017,8.017,8.017h42.756
			c4.427,0,8.017-3.589,8.017-8.017C204.159,405.493,200.569,401.904,196.142,401.904z"/>
	</g>
</g>
<g>
	<g>
		<path d="M367.165,333.495h-51.307c-4.427,0-8.017,3.589-8.017,8.017s3.589,8.017,8.017,8.017h51.307
			c4.427,0,8.017-3.589,8.017-8.017S371.592,333.495,367.165,333.495z"/>
	</g>
</g>
<g>
	<g>
		<path d="M110.63,247.983H76.426c-13.851,0-25.119,11.268-25.119,25.119v17.102c0,13.851,11.268,25.119,25.119,25.119h34.205
			c13.851,0,25.119-11.268,25.119-25.119v-17.102C135.749,259.252,124.481,247.983,110.63,247.983z M119.716,290.205
			c0,5.01-4.076,9.086-9.086,9.086H76.426c-5.01,0-9.086-4.076-9.086-9.086v-17.102c0-5.01,4.076-9.086,9.086-9.086h34.205
			c5.01,0,9.086,4.076,9.086,9.086V290.205z"/>
	</g>
</g>
<g>
	<g>
		<path d="M341.511,222.33c-7.798,0-15.102,2.134-21.378,5.834c-6.275-3.701-13.58-5.834-21.378-5.834
			c-23.281,0-42.221,18.941-42.221,42.221s18.941,42.221,42.221,42.221c7.798,0,15.102-2.134,21.378-5.834
			c6.276,3.701,13.58,5.834,21.378,5.834c23.281,0,42.221-18.941,42.221-42.221S364.792,222.33,341.511,222.33z M307.328,289.291
			c-2.688,0.934-5.571,1.448-8.573,1.448c-14.44,0-26.188-11.748-26.188-26.188s11.748-26.188,26.188-26.188
			c3.003,0,5.885,0.514,8.573,1.448c-5.049,6.957-8.038,15.503-8.038,24.74S302.279,282.332,307.328,289.291z M320.134,279.649
			c-3.025-4.271-4.81-9.478-4.81-15.098s1.785-10.827,4.81-15.098c3.025,4.271,4.81,9.478,4.81,15.098
			S323.159,275.378,320.134,279.649z M341.511,290.739c-3.003,0-5.885-0.514-8.573-1.448c5.049-6.957,8.038-15.503,8.038-24.74
			s-2.989-17.781-8.038-24.74c2.688-0.934,5.571-1.448,8.573-1.448c14.44,0,26.188,11.748,26.188,26.188
			C367.699,278.991,355.951,290.739,341.511,290.739z"/>
	</g>
</g>
</svg>