<svg width="45" height="45" viewBox="0 0 45 45" fill="none" xmlns="http://www.w3.org/2000/svg">
<g clip-path="url(#clip0_225_4461)">
<path d="M44.5596 22.4852C44.5596 10.335 34.7098 0.485228 22.5596 0.485229C10.4093 0.485229 0.559569 10.335 0.559569 22.4852C0.55957 34.6355 10.4093 44.4852 22.5596 44.4852C34.7098 44.4852 44.5596 34.6355 44.5596 22.4852Z" fill="#FF4259"/>
<path d="M22.2847 13.6766C21.769 14.1923 21.769 15.0173 22.2847 15.5329L27.9222 21.1704L14.0175 21.1704C13.2956 21.1704 12.7026 21.7548 12.7026 22.4852C12.7026 23.2071 13.287 23.8001 14.0175 23.8001L27.9222 23.8001L22.2847 29.4376C21.769 29.9532 21.769 30.7782 22.2847 31.2938C22.8003 31.8094 23.6253 31.8094 24.1409 31.2938L32.0214 23.4134C32.2792 23.1555 32.4081 22.8204 32.4081 22.4852C32.4081 22.1501 32.2792 21.8149 32.0214 21.5571L24.1409 13.6766C23.6339 13.161 22.8003 13.161 22.2847 13.6766Z" fill="white"/>
</g>
<defs>
<clipPath id="clip0_225_4461">
<rect width="44" height="44" fill="white" transform="translate(0.55957 44.4852) rotate(-90)"/>
</clipPath>
</defs>
</svg>
