<svg width="128" height="129" viewBox="0 0 128 129" fill="none" xmlns="http://www.w3.org/2000/svg">
<path d="M47.4825 56.1436L36.47 67.1561L25.4575 56.1436" stroke="white" stroke-width="3.75" stroke-linecap="round" stroke-linejoin="round"/>
<path d="M80.5176 72.8367L91.5301 61.8242L102.543 72.8367" stroke="white" stroke-width="3.75" stroke-linecap="round" stroke-linejoin="round"/>
<path d="M36.47 97.4409C41.0318 97.4409 44.73 93.7428 44.73 89.1809C44.73 84.619 41.0318 80.9209 36.47 80.9209C31.9081 80.9209 28.21 84.619 28.21 89.1809C28.21 93.7428 31.9081 97.4409 36.47 97.4409Z" stroke="white" stroke-width="3.75" stroke-linecap="round" stroke-linejoin="round"/>
<path d="M91.5295 47.8862C96.0914 47.8862 99.7895 44.1881 99.7895 39.6262C99.7895 35.0643 96.0914 31.3662 91.5295 31.3662C86.9677 31.3662 83.2695 35.0643 83.2695 39.6262C83.2695 44.1881 86.9677 47.8862 91.5295 47.8862Z" stroke="white" stroke-width="3.75" stroke-linecap="round" stroke-linejoin="round"/>
<path d="M36.4697 64.4035V49.951C36.4697 44.2485 41.0922 39.626 46.7947 39.626H83.2722" stroke="white" stroke-width="3.75" stroke-linecap="round" stroke-linejoin="round"/>
<path d="M91.5305 64.5762V79.0287C91.5305 84.7312 86.908 89.3537 81.2055 89.3537H44.728" stroke="white" stroke-width="3.75" stroke-linecap="round" stroke-linejoin="round"/>
</svg>
