<svg width="128" height="129" viewBox="0 0 128 129" fill="none" xmlns="http://www.w3.org/2000/svg">
<path d="M64.2202 63.0156V76.7206" stroke="white" stroke-width="3.75" stroke-miterlimit="10"/>
<path d="M55.3701 83.7211L64.2201 74.8711" stroke="white" stroke-width="3.75" stroke-miterlimit="10"/>
<path d="M64.2202 74.8711L72.9852 83.6361" stroke="white" stroke-width="3.75" stroke-miterlimit="10"/>
<path d="M71.7499 28.4178C71.4149 33.0853 67.9524 36.6803 64.1774 36.6803C60.4024 36.6803 56.9349 33.0853 56.6049 28.4178C56.2599 23.5628 59.6299 20.1553 64.1774 20.1553C68.7249 20.1553 72.0949 23.6503 71.7499 28.4178Z" stroke="white" stroke-width="3.75" stroke-linecap="round" stroke-linejoin="round"/>
<path d="M64.1772 43.8105C56.6997 43.8105 49.5097 47.5255 47.7072 54.758C47.4697 55.7155 48.0697 56.6605 49.0522 56.6605H79.3047C80.2872 56.6605 80.8847 55.713 80.6497 54.758C78.8472 47.408 71.6572 43.8105 64.1772 43.8105Z" stroke="white" stroke-width="3.75" stroke-miterlimit="10"/>
<path d="M44.1825 68.6258C43.8475 73.2933 40.385 76.8883 36.61 76.8883C32.835 76.8883 29.3675 73.2933 29.0375 68.6258C28.6925 63.7708 32.0625 60.3633 36.61 60.3633C41.1575 60.3633 44.5275 63.8583 44.1825 68.6258Z" stroke="white" stroke-width="3.75" stroke-linecap="round" stroke-linejoin="round"/>
<path d="M36.6073 84.0947C29.1298 84.0947 21.9398 87.8097 20.1373 95.0422C19.8998 95.9997 20.4998 96.9447 21.4823 96.9447H51.7348C52.7173 96.9447 53.3148 95.9972 53.0798 95.0422C51.2773 87.6922 44.0873 84.0947 36.6073 84.0947Z" stroke="white" stroke-width="3.75" stroke-miterlimit="10"/>
<path d="M98.9642 68.6258C98.6292 73.2933 95.1667 76.8883 91.3917 76.8883C87.6167 76.8883 84.1492 73.2933 83.8192 68.6258C83.4742 63.7708 86.8442 60.3633 91.3917 60.3633C95.9392 60.3633 99.3092 63.8583 98.9642 68.6258Z" stroke="white" stroke-width="3.75" stroke-linecap="round" stroke-linejoin="round"/>
<path d="M91.3925 84.5537C83.915 84.5537 76.725 88.2687 74.9225 95.5012C74.685 96.4587 75.285 97.4037 76.2675 97.4037H106.52C107.502 97.4037 108.1 96.4562 107.865 95.5012C106.062 88.1512 98.8725 84.5537 91.3925 84.5537Z" stroke="white" stroke-width="3.75" stroke-miterlimit="10"/>
</svg>
