<svg width="128" height="129" viewBox="0 0 128 129" fill="none" xmlns="http://www.w3.org/2000/svg">
<path d="M70.2223 73.4883V69.9883C70.2223 66.7533 67.4498 64.1533 63.9998 64.1533C60.5498 64.1533 57.7773 66.7533 57.7773 69.9883V73.4883" stroke="white" stroke-width="3.75" stroke-linecap="round" stroke-linejoin="round"/>
<path d="M95.1173 57.3971V95.2721C95.1173 100.427 90.9373 104.607 85.7823 104.607H42.2173C37.0623 104.607 32.8823 100.427 32.8823 95.2721V33.0371C32.8823 27.8821 37.0623 23.7021 42.2173 23.7021H61.4223C63.0723 23.7021 64.6548 24.3571 65.8223 25.5246L93.2948 52.9971C94.4623 54.1646 95.1173 55.7471 95.1173 57.3971Z" stroke="white" stroke-width="3.75" stroke-linejoin="round"/>
<path d="M64 24.2617V48.5942C64 52.0317 66.7875 54.8167 70.2225 54.8167H94.555" stroke="white" stroke-width="3.75" stroke-linecap="round" stroke-linejoin="round"/>
<path d="M73.3349 73.4893H54.6649C51.2274 73.4893 48.4424 76.2768 48.4424 79.7118V89.0468C48.4424 92.4843 51.2299 95.2693 54.6649 95.2693H73.3349C76.7724 95.2693 79.5574 92.4818 79.5574 89.0468V79.7118C79.5574 76.2743 76.7699 73.4893 73.3349 73.4893ZM67.3049 87.5493C67.3049 88.8318 66.2549 89.8843 64.9699 89.8843H63.0249C61.7424 89.8843 60.6899 88.8343 60.6899 87.5493V82.1043C60.6899 80.8218 61.7399 79.7693 63.0249 79.7693H64.9699C66.2524 79.7693 67.3049 80.8193 67.3049 82.1043V87.5493Z" fill="white"/>
</svg>
