<svg width="128" height="128" viewBox="0 0 128 128" fill="none" xmlns="http://www.w3.org/2000/svg">
<path d="M91.7249 61.2752L68.6499 38.2002C67.1499 36.7002 64.7249 36.7002 63.1999 38.2002C61.6999 39.7002 61.6999 42.1502 63.1999 43.6502L79.6999 60.1502H38.9999C36.8749 60.1502 35.1499 61.8752 35.1499 64.0002C35.1499 66.1252 36.8749 67.8502 38.9999 67.8502H79.7249L63.2249 84.3502C61.7249 85.8502 61.7249 88.2752 63.2249 89.8002C63.9749 90.5502 64.9499 90.9252 65.9499 90.9252C66.9249 90.9252 67.9249 90.5502 68.6749 89.8002L91.7499 66.7252C93.2249 65.2252 93.2249 62.7752 91.7249 61.2752Z" fill="white"/>
</svg>
