<svg width="128" height="129" viewBox="0 0 128 129" fill="none" xmlns="http://www.w3.org/2000/svg">
<path d="M75.1628 68.3548C76.5928 70.0373 89.9903 83.4648 92.1828 86.1998C94.0753 88.5598 94.5353 91.3223 93.1353 94.0298C91.7353 96.7373 89.0978 98.3873 86.0078 98.2723C83.7728 98.1873 81.6603 97.0173 80.2328 95.3248C76.9828 91.4773 68.1203 82.4323 64.8578 78.5948C64.6428 78.3423 64.4078 78.1073 64.0928 77.7673C63.7653 78.3598 63.4678 78.8473 63.2203 79.3573C60.8428 84.2473 58.4753 89.1423 56.1003 94.0323C55.1928 95.8998 53.6303 96.5023 51.7078 95.7198C50.0378 95.0398 49.0703 93.7573 48.5928 92.0523C46.6053 84.9573 44.6153 77.8598 42.6178 70.7673C39.5453 59.8473 36.4703 48.9298 33.3803 38.0148C32.9553 36.5148 32.7328 35.0223 33.2303 33.5048C34.0453 31.0173 36.4028 29.8998 39.2828 30.9023C41.4228 31.6448 43.4603 32.6998 45.5203 33.6648C60.8753 40.8573 76.2203 48.0698 91.5778 55.2573C93.2428 56.0348 94.4754 57.1273 94.9179 58.9748C95.4129 61.0423 94.5704 62.5298 92.5429 63.1273C87.3979 64.6473 82.2478 66.1598 77.1028 67.6823C76.4928 67.8623 75.9003 68.0973 75.1653 68.3548H75.1628Z" stroke="white" stroke-width="3.75" stroke-miterlimit="10"/>
</svg>
