<svg width="144" height="144" viewBox="0 0 144 144" fill="none" xmlns="http://www.w3.org/2000/svg">
<path fill-rule="evenodd" clip-rule="evenodd" d="M70.5654 35.6046C71.4247 35.1136 72.4796 35.1136 73.3389 35.6046L112.471 57.9658C113.342 58.4635 113.879 59.3896 113.879 60.3927C113.879 61.3957 113.342 62.3219 112.471 62.8195L73.3389 85.1807C72.4796 85.6718 71.4247 85.6718 70.5654 85.1807L31.4333 62.8195C30.5624 62.3219 30.0249 61.3957 30.0249 60.3927C30.0249 59.3896 30.5624 58.4635 31.4333 57.9658L70.5654 35.6046ZM38.4539 60.3927L71.9521 79.5346L105.45 60.3927L71.9521 41.2508L38.4539 60.3927Z" fill="white"/>
<path fill-rule="evenodd" clip-rule="evenodd" d="M46.7956 65.9829C48.3394 65.9829 49.5908 67.2343 49.5908 68.7781V89.4946L71.952 101.917L94.3132 89.4946V68.7781C94.3132 67.2343 95.5646 65.9829 97.1083 65.9829C98.6521 65.9829 99.9035 67.2343 99.9035 68.7781V91.1393C99.9035 92.1544 99.3531 93.0897 98.4658 93.5827L73.3094 107.558C72.4652 108.027 71.4387 108.027 70.5945 107.558L45.4382 93.5827C44.5508 93.0897 44.0005 92.1544 44.0005 91.1393V68.7781C44.0005 67.2343 45.2519 65.9829 46.7956 65.9829Z" fill="white"/>
<path fill-rule="evenodd" clip-rule="evenodd" d="M111.084 57.5977C112.627 57.5977 113.879 58.8491 113.879 60.3928V91.1395C113.879 92.6832 112.627 93.9346 111.084 93.9346C109.54 93.9346 108.289 92.6832 108.289 91.1395V60.3928C108.289 58.8491 109.54 57.5977 111.084 57.5977Z" fill="white"/>
<path fill-rule="evenodd" clip-rule="evenodd" d="M71.9519 79.9587C73.4956 79.9587 74.747 81.2102 74.747 82.7539V105.115C74.747 106.659 73.4956 107.91 71.9519 107.91C70.4082 107.91 69.1567 106.659 69.1567 105.115V82.7539C69.1567 81.2102 70.4082 79.9587 71.9519 79.9587Z" fill="white"/>
</svg>
