<svg width="128" height="129" viewBox="0 0 128 129" fill="none" xmlns="http://www.w3.org/2000/svg">
<path d="M36.1299 74.5375V46.67C36.1299 43.8725 38.3974 41.6025 41.1974 41.6025C43.9949 41.6025 46.2649 43.87 46.2649 46.67V64.4025" stroke="white" stroke-width="3.75" stroke-linecap="round" stroke-linejoin="round"/>
<path d="M46.2627 64.4057V36.5382C46.2627 33.7407 48.5302 31.4707 51.3302 31.4707C54.1277 31.4707 56.3977 33.7382 56.3977 36.5382V61.8707" stroke="white" stroke-width="3.75" stroke-linecap="round" stroke-linejoin="round"/>
<path d="M66.5298 62.0299V39.0724C66.5298 36.2749 68.7973 34.0049 71.5973 34.0049C74.3948 34.0049 76.6648 36.2724 76.6648 39.0724V74.5399" stroke="white" stroke-width="3.75" stroke-linecap="round" stroke-linejoin="round"/>
<path d="M56.3975 61.8728V31.4728C56.3975 28.6753 58.665 26.4053 61.465 26.4053C64.2625 26.4053 66.5325 28.6728 66.5325 31.4728V61.8728" stroke="white" stroke-width="3.75" stroke-linecap="round" stroke-linejoin="round"/>
<path d="M36.1299 74.5372C36.1299 93.1247 46.2624 102.405 60.1974 102.405C74.1324 102.405 79.7849 96.1347 82.9974 88.4722L91.3424 65.6722C92.3974 62.8147 91.9199 60.1647 89.4624 58.7697C87.0049 57.3722 83.7774 58.0922 82.4474 60.6197L76.6624 74.5397" stroke="white" stroke-width="3.75" stroke-linecap="round" stroke-linejoin="round"/>
</svg>
