<svg width="128" height="129" viewBox="0 0 128 129" fill="none" xmlns="http://www.w3.org/2000/svg">
<path d="M39.0524 74.9082H33.7974C33.0725 74.9082 32.4849 75.4958 32.4849 76.2207V99.8582C32.4849 100.583 33.0725 101.171 33.7974 101.171H39.0524C39.7772 101.171 40.3649 100.583 40.3649 99.8582V76.2207C40.3649 75.4958 39.7772 74.9082 39.0524 74.9082Z" stroke="white" stroke-width="3.75" stroke-linecap="round" stroke-linejoin="round"/>
<path d="M75.8199 59.1504H70.5649C69.8401 59.1504 69.2524 59.738 69.2524 60.4629V99.8579C69.2524 100.583 69.8401 101.17 70.5649 101.17H75.8199C76.5448 101.17 77.1324 100.583 77.1324 99.8579V60.4629C77.1324 59.738 76.5448 59.1504 75.8199 59.1504Z" stroke="white" stroke-width="3.75" stroke-linecap="round" stroke-linejoin="round"/>
<path d="M94.2047 40.7666H88.9497C88.2248 40.7666 87.6372 41.3542 87.6372 42.0791V99.8591C87.6372 100.584 88.2248 101.172 88.9497 101.172H94.2047C94.9296 101.172 95.5172 100.584 95.5172 99.8591V42.0791C95.5172 41.3542 94.9296 40.7666 94.2047 40.7666Z" stroke="white" stroke-width="3.75" stroke-linecap="round" stroke-linejoin="round"/>
<path d="M57.4347 27.6357H52.1797C51.4548 27.6357 50.8672 28.2234 50.8672 28.9482V99.8582C50.8672 100.583 51.4548 101.171 52.1797 101.171H57.4347C58.1596 101.171 58.7472 100.583 58.7472 99.8582V28.9482C58.7472 28.2234 58.1596 27.6357 57.4347 27.6357Z" stroke="white" stroke-width="3.75" stroke-linecap="round" stroke-linejoin="round"/>
</svg>
