<svg width="128" height="129" viewBox="0 0 128 129" fill="none" xmlns="http://www.w3.org/2000/svg">
<path d="M63.9998 60.3249C82.1065 60.3249 96.7849 54.2091 96.7849 46.6649C96.7849 39.1207 82.1065 33.0049 63.9998 33.0049C45.8932 33.0049 31.2148 39.1207 31.2148 46.6649C31.2148 54.2091 45.8932 60.3249 63.9998 60.3249Z" stroke="white" stroke-width="3.75" stroke-miterlimit="10" stroke-linecap="round"/>
<path d="M96.7849 61.3506C96.7849 68.8956 82.0999 75.0106 63.9998 75.0106C45.8998 75.0106 31.2148 68.8931 31.2148 61.3506" stroke="white" stroke-width="3.75" stroke-miterlimit="10" stroke-linecap="round"/>
<path d="M96.7849 76.0342C96.7849 83.5792 82.0999 89.6942 63.9998 89.6942C45.8998 89.6942 31.2148 83.5767 31.2148 76.0342" stroke="white" stroke-width="3.75" stroke-miterlimit="10" stroke-linecap="round"/>
<path d="M31.2148 46.5342V90.5067C31.2148 97.9792 45.8998 104.037 63.9998 104.037C82.0999 104.037 96.7849 97.9792 96.7849 90.5067V46.5342" stroke="white" stroke-width="3.75" stroke-miterlimit="10" stroke-linecap="round"/>
<path d="M81.7498 25.83C74.0873 24.455 70.9173 23.4375 63.9998 20.3125C57.0823 23.4375 53.9148 24.455 46.2498 25.83C44.8623 47.835 62.6773 55.4325 63.9998 55.965C65.3223 55.4325 83.1373 47.835 81.7498 25.83Z" fill="white"/>
<path d="M70.855 31.0996L61.36 42.0671L57.145 37.9371" stroke="#FF4259" stroke-width="3.75" stroke-miterlimit="10"/>
</svg>
