<?xml version="1.0" encoding="UTF-8"?><svg id="a" xmlns="http://www.w3.org/2000/svg" viewBox="0 0 513.8 514.71"><defs><style>.b{fill:#a7e82c;}.c{stroke-linejoin:round;}.c,.d,.e{fill:none;stroke:#fff;stroke-width:15px;}.c,.e{stroke-linecap:round;}.d,.e{stroke-miterlimit:10;}</style></defs><circle class="b" cx="256.62" cy="257.05" r="256"/><g><g><path class="c" d="M333.79,187.34c-2.32,32.22-26.22,57.04-52.28,57.04s-50-24.81-52.28-57.04c-2.38-33.52,20.89-57.04,52.28-57.04s54.66,24.13,52.28,57.04Z"/><path class="d" d="M281.5,295.08c-51.62,0-101.27,25.64-113.71,75.58-1.65,6.61,2.5,13.14,9.28,13.14h208.85c6.79,0,10.91-6.54,9.28-13.14-12.44-50.74-62.08-75.58-113.71-75.58Z"/><path class="c" d="M173.77,201.56c-1.85,25.73-21.17,45.99-41.98,45.99s-40.16-20.26-41.98-45.99c-1.89-26.77,16.9-45.9,41.98-45.9s43.88,19.62,41.98,45.9Z"/><path class="e" d="M178.52,296.66c-14.3-6.55-30.05-9.07-46.74-9.07-41.19,0-80.88,20.48-90.82,60.36-1.31,5.28,2,10.5,7.42,10.5h88.94"/></g><path class="c" d="M449.34,222.73c-15.86,0-23.68,15.63-23.68,15.63,0,0-7.82-15.63-23.68-15.63-12.89,0-23.09,10.78-23.23,23.65-.27,26.71,21.19,45.7,44.7,61.66,1.33,.9,3.07,.9,4.4,0,23.51-15.96,44.97-34.95,44.7-61.66-.13-12.87-10.34-23.65-23.23-23.65Z"/></g></svg>